<svg width="8.1718mm" height="7.3494mm" version="1.1" viewBox="0 0 8.1718 7.3494" xmlns="http://www.w3.org/2000/svg"><defs><filter id="a" x="-.029478" y="-.032516" width="1.059" height="1.065" color-interpolation-filters="sRGB"><feGaussianBlur stdDeviation="5.7370526"/></filter></defs><g transform="translate(-136.86 -184.38)"><path d="m143.73 191.46c0.53176-0.10175 0.37264-0.69771 0.0238-0.92167-0.48169-0.30926-1.1506 0.0935-1.5387-0.37547-0.10431-0.12606-0.46788-0.56648-0.24237-0.60194 0.22014 0.28399 0.43347 0.62745 0.84257 0.66474 0.39386 0.0359 0.53704-0.22355 0.723-0.55022 0.11063-0.19434 0.68217-0.74162 0.82007-0.56625-0.21794 0.50157 0.76727 0.41265 0.46668-0.0663 0.0167-0.53906-0.68762-0.86784-1.0715-0.48459-0.23931 0.23894-0.55078 0.69735-0.92665 0.3549-0.19638-0.21514-0.66589-0.59804-0.62599-0.76421 0.35515-0.10296 0.62692 0.93487 0.80502 0.32403-0.11104-1.0992 0.0581-2.2931-0.5309-3.2863-0.29969-0.62898-1.2641-0.80151-1.7251-0.25798-0.63657 0.58686-0.58365 1.5176-0.65301 2.3086-0.049 0.52598-0.4671 1.1504-1.0618 1.0506-0.45974-0.17902-1.0095-0.24831-1.4626-0.0113-0.27008 0.15309-0.18628 0.32208 0.0936 0.28877 0.54384 0.0982 0.95014 0.51247 1.2474 0.96734 0.25343 0.38775 0.78597 0.16767 1.1539 0.0651 0.38984-0.10874 0.7904 0.13016 0.89783 0.51506 0.11699 0.41915 0.12905 1.018 0.60835 1.1773 0.46847 0.15568 1.002-0.42333 1.4264-0.0533 0.19476 0.16978 0.46124 0.27441 0.72979 0.22303z" fill="#fff" stroke="#fea44c" stroke-width=".026954"/><path d="m141.3 191.67c-0.29605-0.22568-0.48342-0.51964-0.49742-0.93451-0.0123-0.36424-0.19603-0.34467-0.47899-0.027-0.34992 0.39287-0.89569 0.25753-1.1513-0.53987-0.13326-0.41569-0.456-0.17878-0.69655 0.23796-0.35824 0.39829-0.1893-0.79357-0.57873-0.95526-0.48129-0.19985-6e-3 0.52735-0.54853 0.33464-0.48108-0.23372-0.68743-0.97072-0.24394-1.3415 0.56785-0.52374 1.4078-0.43017 2.1061-0.29772 0.51959-0.0663 0.70987-0.64015 0.75508-1.0895 0.078-0.77368 0.0736-1.6647 0.67358-2.2456 0.5958-0.61239 1.764-0.36254 2.0503 0.4425 0.46611 1.0334 0.40469 2.1881 0.46595 3.2934 0.4 0.27179 0.61967-0.50488 1.0468-0.41233 0.50983 0.11047 0.86015 0.66494 0.76784 1.1773-0.10988 0.49024-0.62775 0.12976-0.93303 0.23936-0.34569 0.12412-0.56134 0.62533-0.16649 0.80081 0.37742 0.16773 0.43965 0.8538 0.26518 1.0283-0.49178 0.49439-0.7306 0.31775-1.3102-0.0169-0.38944-0.2054-1.1523 0.59046-1.5256 0.30593zm2.4295-0.21235c0.53176-0.10175 0.37264-0.69771 0.0238-0.92167-0.48169-0.30926-1.1506 0.0935-1.5387-0.37547-0.10431-0.12606-0.46788-0.56648-0.24237-0.60194 0.22014 0.28399 0.43347 0.62745 0.84257 0.66474 0.39386 0.0359 0.53704-0.22355 0.723-0.55022 0.11063-0.19434 0.68217-0.74162 0.82007-0.56625-0.21794 0.50157 0.76727 0.41265 0.46668-0.0663 0.0167-0.53906-0.68762-0.86784-1.0715-0.48459-0.23931 0.23894-0.55078 0.69735-0.92665 0.3549-0.19638-0.21514-0.66589-0.59804-0.62599-0.76421 0.35515-0.10296 0.62692 0.93487 0.80502 0.32403-0.11104-1.0992 0.0581-2.2931-0.5309-3.2863-0.29969-0.62898-1.2641-0.80151-1.7251-0.25798-0.63657 0.58686-0.58365 1.5176-0.65301 2.3086-0.049 0.52598-0.4671 1.1504-1.0618 1.0506-0.45974-0.17902-1.0095-0.24831-1.4626-0.0113-0.27008 0.15309-0.18628 0.32208 0.0936 0.28877 0.54384 0.0982 0.95014 0.51247 1.2474 0.96734 0.25343 0.38775 0.78597 0.16767 1.1539 0.0651 0.38984-0.10874 0.7904 0.13016 0.89783 0.51506 0.11699 0.41915 0.12905 1.018 0.60835 1.1773 0.46847 0.15568 1.002-0.42333 1.4264-0.0533 0.19476 0.16978 0.46124 0.27441 0.72979 0.22303z" stroke-width=".015855"/><ellipse transform="rotate(2.0588)" cx="148.06" cy="180.45" rx=".21999" ry=".35595" fill-rule="evenodd" style="paint-order:stroke fill markers"/><ellipse transform="rotate(-9.3498)" cx="110.16" cy="206.23" rx=".18853" ry=".30505" fill-rule="evenodd" style="paint-order:stroke fill markers"/><path d="m141.54 186.52c-0.11045 0.12477 0.0229 0.37557 0.18054 0.22747 0.19906-0.12412 0.41536-0.0391 0.6163-0.0175 0.23488-0.043 0.18282-0.30863 8e-3 -0.39496-0.13009-0.12554-0.34163-0.21603-0.50664-0.10093-0.11876 0.0726-0.20531 0.18453-0.29784 0.28598z" fill-rule="evenodd" style="paint-order:stroke fill markers"/><path d="m143.73 191.46c0.53176-0.10175 0.37264-0.69771 0.0238-0.92167-0.48169-0.30926-1.1506 0.0935-1.5387-0.37547-0.10431-0.12606-0.46788-0.56648-0.24237-0.60194 0.22014 0.28399 0.43347 0.62745 0.84257 0.66474 0.39386 0.0359 0.53704-0.22355 0.723-0.55022 0.11063-0.19434 0.68217-0.74162 0.82007-0.56625-0.21794 0.50157 0.76727 0.41265 0.46668-0.0663 0.0167-0.53906-0.68762-0.86784-1.0715-0.48459-0.23931 0.23894-0.55078 0.69735-0.92665 0.3549-0.19638-0.21514-0.66589-0.59804-0.62599-0.76421 0.35515-0.10296 0.62692 0.93487 0.80502 0.32403-0.11104-1.0992 0.0581-2.2931-0.5309-3.2863-0.29969-0.62898-1.2641-0.80151-1.7251-0.25798-0.63657 0.58686-0.58365 1.5176-0.65301 2.3086-0.049 0.52598-0.4671 1.1504-1.0618 1.0506-0.45974-0.17902-1.0095-0.24831-1.4626-0.0113-0.27008 0.15309-0.18628 0.32208 0.0936 0.28877 0.54384 0.0982 0.95014 0.51247 1.2474 0.96734 0.25343 0.38775 0.78597 0.16767 1.1539 0.0651 0.38984-0.10874 0.7904 0.13016 0.89783 0.51506 0.11699 0.41915 0.12905 1.018 0.60835 1.1773 0.46847 0.15568 1.002-0.42333 1.4264-0.0533 0.19476 0.16978 0.46124 0.27441 0.72979 0.22303z" fill="#fff" stroke="#fea44c" stroke-width=".026954"/><path d="m141.3 191.67c-0.29605-0.22568-0.48342-0.51964-0.49742-0.93451-0.0123-0.36424-0.19603-0.34467-0.47899-0.027-0.34992 0.39287-0.89569 0.25753-1.1513-0.53987-0.13326-0.41569-0.456-0.17878-0.69655 0.23796-0.35824 0.39829-0.1893-0.79357-0.57873-0.95526-0.48129-0.19985-6e-3 0.52735-0.54853 0.33464-0.48108-0.23372-0.68743-0.97072-0.24394-1.3415 0.56785-0.52374 1.4078-0.43017 2.1061-0.29772 0.51959-0.0663 0.70987-0.64015 0.75508-1.0895 0.078-0.77368 0.0736-1.6647 0.67358-2.2456 0.5958-0.61239 1.764-0.36254 2.0503 0.4425 0.46611 1.0334 0.40469 2.1881 0.46595 3.2934 0.4 0.27179 0.61967-0.50488 1.0468-0.41233 0.50983 0.11047 0.86015 0.66494 0.76784 1.1773-0.10988 0.49024-0.62775 0.12976-0.93303 0.23936-0.34569 0.12412-0.56134 0.62533-0.16649 0.80081 0.37742 0.16773 0.43965 0.8538 0.26518 1.0283-0.49178 0.49439-0.7306 0.31775-1.3102-0.0169-0.38944-0.2054-1.1523 0.59046-1.5256 0.30593zm2.4295-0.21235c0.53176-0.10175 0.37264-0.69771 0.0238-0.92167-0.48169-0.30926-1.1506 0.0935-1.5387-0.37547-0.10431-0.12606-0.46788-0.56648-0.24237-0.60194 0.22014 0.28399 0.43347 0.62745 0.84257 0.66474 0.39386 0.0359 0.53704-0.22355 0.723-0.55022 0.11063-0.19434 0.68217-0.74162 0.82007-0.56625-0.21794 0.50157 0.76727 0.41265 0.46668-0.0663 0.0167-0.53906-0.68762-0.86784-1.0715-0.48459-0.23931 0.23894-0.55078 0.69735-0.92665 0.3549-0.19638-0.21514-0.66589-0.59804-0.62599-0.76421 0.35515-0.10296 0.62692 0.93487 0.80502 0.32403-0.11104-1.0992 0.0581-2.2931-0.5309-3.2863-0.29969-0.62898-1.2641-0.80151-1.7251-0.25798-0.63657 0.58686-0.58365 1.5176-0.65301 2.3086-0.049 0.52598-0.4671 1.1504-1.0618 1.0506-0.45974-0.17902-1.0095-0.24831-1.4626-0.0113-0.27008 0.15309-0.18628 0.32208 0.0936 0.28877 0.54384 0.0982 0.95014 0.51247 1.2474 0.96734 0.25343 0.38775 0.78597 0.16767 1.1539 0.0651 0.38984-0.10874 0.7904 0.13016 0.89783 0.51506 0.11699 0.41915 0.12905 1.018 0.60835 1.1773 0.46847 0.15568 1.002-0.42333 1.4264-0.0533 0.19476 0.16978 0.46124 0.27441 0.72979 0.22303z" stroke-width=".015855"/><ellipse transform="rotate(2.0588)" cx="148.06" cy="180.45" rx=".21999" ry=".35595" fill-rule="evenodd" style="paint-order:stroke fill markers"/><ellipse transform="rotate(-9.3498)" cx="110.16" cy="206.23" rx=".18853" ry=".30505" fill-rule="evenodd" style="paint-order:stroke fill markers"/><path d="m141.54 186.52c-0.11045 0.12477 0.0229 0.37557 0.18054 0.22747 0.19906-0.12412 0.41536-0.0391 0.6163-0.0175 0.23488-0.043 0.18282-0.30863 8e-3 -0.39496-0.13009-0.12554-0.34163-0.21603-0.50664-0.10093-0.11876 0.0726-0.20531 0.18453-0.29784 0.28598z" fill-rule="evenodd" style="paint-order:stroke fill markers"/><path d="m143.73 191.46c0.53176-0.10175 0.37264-0.69771 0.0238-0.92167-0.48169-0.30926-1.1506 0.0935-1.5387-0.37547-0.10431-0.12606-0.46788-0.56648-0.24237-0.60194 0.22014 0.28399 0.43347 0.62745 0.84257 0.66474 0.39386 0.0359 0.53704-0.22355 0.723-0.55022 0.11063-0.19434 0.68217-0.74162 0.82007-0.56625-0.21794 0.50157 0.76727 0.41265 0.46668-0.0663 0.0167-0.53906-0.68762-0.86784-1.0715-0.48459-0.23931 0.23894-0.55078 0.69735-0.92665 0.3549-0.19638-0.21514-0.66589-0.59804-0.62599-0.76421 0.35515-0.10296 0.62692 0.93487 0.80502 0.32403-0.11104-1.0992 0.0581-2.2931-0.5309-3.2863-0.29969-0.62898-1.2641-0.80151-1.7251-0.25798-0.63657 0.58686-0.58365 1.5176-0.65301 2.3086-0.049 0.52598-0.4671 1.1504-1.0618 1.0506-0.45974-0.17902-1.0095-0.24831-1.4626-0.0113-0.27008 0.15309-0.18628 0.32208 0.0936 0.28877 0.54384 0.0982 0.95014 0.51247 1.2474 0.96734 0.25343 0.38775 0.78597 0.16767 1.1539 0.0651 0.38984-0.10874 0.7904 0.13016 0.89783 0.51506 0.11699 0.41915 0.12905 1.018 0.60835 1.1773 0.46847 0.15568 1.002-0.42333 1.4264-0.0533 0.19476 0.16978 0.46124 0.27441 0.72979 0.22303z" fill="#fff" stroke="#fea44c" stroke-width=".026954"/><path d="m141.3 191.67c-0.29605-0.22568-0.48342-0.51964-0.49742-0.93451-0.0123-0.36424-0.19603-0.34467-0.47899-0.027-0.34992 0.39287-0.89569 0.25753-1.1513-0.53987-0.13326-0.41569-0.456-0.17878-0.69655 0.23796-0.35824 0.39829-0.1893-0.79357-0.57873-0.95526-0.48129-0.19985-6e-3 0.52735-0.54853 0.33464-0.48108-0.23372-0.68743-0.97072-0.24394-1.3415 0.56785-0.52374 1.4078-0.43017 2.1061-0.29772 0.51959-0.0663 0.70987-0.64015 0.75508-1.0895 0.078-0.77368 0.0736-1.6647 0.67358-2.2456 0.5958-0.61239 1.764-0.36254 2.0503 0.4425 0.46611 1.0334 0.40469 2.1881 0.46595 3.2934 0.4 0.27179 0.61967-0.50488 1.0468-0.41233 0.50983 0.11047 0.86015 0.66494 0.76784 1.1773-0.10988 0.49024-0.62775 0.12976-0.93303 0.23936-0.34569 0.12412-0.56134 0.62533-0.16649 0.80081 0.37742 0.16773 0.43965 0.8538 0.26518 1.0283-0.49178 0.49439-0.7306 0.31775-1.3102-0.0169-0.38944-0.2054-1.1523 0.59046-1.5256 0.30593zm2.4295-0.21235c0.53176-0.10175 0.37264-0.69771 0.0238-0.92167-0.48169-0.30926-1.1506 0.0935-1.5387-0.37547-0.10431-0.12606-0.46788-0.56648-0.24237-0.60194 0.22014 0.28399 0.43347 0.62745 0.84257 0.66474 0.39386 0.0359 0.53704-0.22355 0.723-0.55022 0.11063-0.19434 0.68217-0.74162 0.82007-0.56625-0.21794 0.50157 0.76727 0.41265 0.46668-0.0663 0.0167-0.53906-0.68762-0.86784-1.0715-0.48459-0.23931 0.23894-0.55078 0.69735-0.92665 0.3549-0.19638-0.21514-0.66589-0.59804-0.62599-0.76421 0.35515-0.10296 0.62692 0.93487 0.80502 0.32403-0.11104-1.0992 0.0581-2.2931-0.5309-3.2863-0.29969-0.62898-1.2641-0.80151-1.7251-0.25798-0.63657 0.58686-0.58365 1.5176-0.65301 2.3086-0.049 0.52598-0.4671 1.1504-1.0618 1.0506-0.45974-0.17902-1.0095-0.24831-1.4626-0.0113-0.27008 0.15309-0.18628 0.32208 0.0936 0.28877 0.54384 0.0982 0.95014 0.51247 1.2474 0.96734 0.25343 0.38775 0.78597 0.16767 1.1539 0.0651 0.38984-0.10874 0.7904 0.13016 0.89783 0.51506 0.11699 0.41915 0.12905 1.018 0.60835 1.1773 0.46847 0.15568 1.002-0.42333 1.4264-0.0533 0.19476 0.16978 0.46124 0.27441 0.72979 0.22303z" stroke-width=".015855"/><ellipse transform="rotate(2.0588)" cx="148.06" cy="180.45" rx=".21999" ry=".35595" fill-rule="evenodd" style="paint-order:stroke fill markers"/><ellipse transform="rotate(-9.3498)" cx="110.16" cy="206.23" rx=".18853" ry=".30505" fill-rule="evenodd" style="paint-order:stroke fill markers"/><path d="m141.54 186.52c-0.11045 0.12477 0.0229 0.37557 0.18054 0.22747 0.19906-0.12412 0.41536-0.0391 0.6163-0.0175 0.23488-0.043 0.18282-0.30863 8e-3 -0.39496-0.13009-0.12554-0.34163-0.21603-0.50664-0.10093-0.11876 0.0726-0.20531 0.18453-0.29784 0.28598z" fill-rule="evenodd" style="paint-order:stroke fill markers"/><path transform="matrix(.015855 0 0 .015855 88.95 161.3)" d="m3311.2 1469.7c-16.662 0.5799-32.874 7.0783-44.236 20.475-40.149 37.014-36.811 95.716-41.186 145.61-3.0893 33.174-29.461 72.56-66.969 66.264-28.997-11.291-63.667-15.661-92.248-0.7089-17.034 9.655-11.749 20.314 5.9023 18.213 2.4095 0.4351 4.777 0.968 7.1016 1.5938 31.915-14.925 69.834-9.8407 101.74 2.582 42.82 7.1877 72.928-37.777 76.455-75.65 4.9944-56.96 1.1831-123.98 47.02-166.23 4.0401-4.7635 8.6158-8.7637 13.578-12.033-2.386-0.156-4.7739-0.1923-7.1543-0.1094zm171.89 238.93c-6.0841-0.1718-12.183 1.0538-17.771 3.9336 0.4757 8.2183 1.0842 16.39 1.9023 24.488-6.9724 23.912-15.939 12.734-26.779-1.2539-3.3859 3.2624-6.9285 6.2822-10.623 8.627 8.8294 8.8726 18.466 17.699 24.51 24.32 1.2441 1.1334 2.4787 2.1461 3.7032 3.043 13.32-12.829 30.811-25.205 36.52-17.945-2.9813 6.861-2.3922 11.971 0.164 15.457 9.7953-7.4471 18.592-18.375 26.338-26.109 0.7252-0.7241 1.4651-1.4123 2.2207-2.0664-3.8104-18.871-21.931-31.979-40.184-32.494zm-90.268 106.76c-4.226 0.6645-5.5799 3.3044-5.1368 7.0059 2.9878 0.9205 6.1595 1.5607 9.543 1.8691 0.8409 0.077 1.6634 0.1315 2.4688 0.166-2.3109-3.0501-4.5876-6.0901-6.875-9.041zm-112.21 2.0059c7.3175 26.425 8.1633 64 38.303 74.016 3.308 1.0993 6.6671 1.6184 10.062 1.7051-3.3403-12.883-5.4618-26.383-8.6972-37.975-5.4054-19.366-21.116-33.6-39.668-37.746zm112.66 18.287c5.4531 9.0771 13.387 18.682 17 23.049 17.091 20.654 41.745 17.828 66.254 17.611-0.3798-4.9816-1.9736-10.144-4.498-14.992-5.2379 1.8377-11.301 2.562-18.539 1.9023-19.838-1.8081-33.282-13.615-44.789-27.379-5.2222 0.095-10.398 0.1426-15.428-0.1914z" fill="#dedede" filter="url(#a)"/></g></svg>
